<svg xmlns='http://www.w3.org/2000/svg' width='400' height='400'>
      <defs><style>.cls-multipy{mix-blend-mode: multiply;}.cls-softlight{mix-blend-mode: soft-light;}.cls-overlay{mix-blend-mode: overlay;}.cls-colorburn{mix-blend-mode: color-burn;}.cls-screen{mix-blend-mode: screen;}.cls-lighten{ mix-blend-mode: darken;}</style>
      </defs><path fill="#ffc09c" stroke="#000" stroke-miterlimit="10" stroke-width="5" d="M303.13,380v19.39H96.87V380c0-38.61,19.76-71.1,45.91-78.94a42.23,42.23,0,0,1,8.94-1.67h0c1.08-.09,2.16-.14,3.26-.14h90c1.1,0,2.18,0,3.26.14h0a42.32,42.32,0,0,1,12.16,2.78C285,311.65,303.13,343,303.13,380Z" class="canChange"></path><path fill="#ffc09c" stroke="#000" stroke-miterlimit="10" stroke-width="5" d="M311.59,187.33s53.56-48.67,44.87,6.95S312.69,238,312.69,238" class="canChange"></path><path fill="none" stroke="#000" stroke-miterlimit="10" stroke-width="2" d="M345.49,178.08c-7.33,1.35-19.24,13.09-21.6,22a7.31,7.31,0,0,1,10.47-.63c3.17,2.78,4.94,8.41,4.24,13.5s-3.83,9.3-7.49,10.1"></path><path fill="#fff" d="M315.07,196.36c5.16-10.16,12.78-17.79,21.34-21.37,3-1.27,6.42-2,9.34-.19,4.05,2.51,6,9.35,5.7,15.49s-2.37,11.76-4.4,17.19c4.25-5.19,7.1-12.56,7.89-20.42.4-3.93.23-8.26-1.49-11.48A9.14,9.14,0,0,0,348,171a12.92,12.92,0,0,0-6.39,0c-10.12,2.14-19.41,10.61-24.85,22.65" class="cls-overlay"></path><path fill="#ffc09c" stroke="#000" stroke-miterlimit="10" stroke-width="5" d="M88.41,187.33s-53.56-48.67-44.87,6.95S87.31,238,87.31,238" class="canChange"></path><path fill="none" stroke="#000" stroke-miterlimit="10" stroke-width="2" d="M54.51,178.08c7.33,1.35,19.24,13.09,21.6,22a7.31,7.31,0,0,0-10.47-.63c-3.17,2.78-4.94,8.41-4.24,13.5s3.83,9.3,7.49,10.1"></path><path fill="#fff" d="M84.93,196.36C79.77,186.2,72.15,178.57,63.59,175c-3-1.27-6.42-2-9.34-.19-4,2.51-6,9.35-5.7,15.49s2.37,11.76,4.4,17.19c-4.25-5.19-7.1-12.56-7.89-20.42-.4-3.93-.23-8.26,1.49-11.48A9.14,9.14,0,0,1,52,171a12.92,12.92,0,0,1,6.39,0c10.12,2.14,19.41,10.61,24.85,22.65" class="cls-overlay"></path><circle fill="#ffc09c" stroke="#000" stroke-miterlimit="10" stroke-width="5" cx="199.03" cy="179.39" r="129.04" class="canChange"></circle><path fill="#fff" d="M79.76,187a128.71,128.71,0,0,0,45.12,98A129,129,0,1,1,283,81.38,129.06,129.06,0,0,0,79.76,187Z" class="cls-overlay"></path><path opacity="0.29" d="M328.31,179.39a129.06,129.06,0,0,1-252,39.18A129.08,129.08,0,0,0,312.47,117.39,128.45,128.45,0,0,1,328.31,179.39Z"></path><path fill="#6e3e23" stroke="#000" stroke-miterlimit="10" stroke-width="5" d="M357.48,102.83a66.57,66.57,0,0,1-14.48,36L327.73,171.4c-.85-.67-1.69-1.34-2.57-2-3.21-2.35-8.34-4.82-9.7-8.84a4.38,4.38,0,0,0-.23-.58,110,110,0,0,1-.78-11.56c-.12-7.68-18-9-17.23-22.7,1.72-31.38-46.06-34.55-81.18-32.55-12.8.72-23.92,2.14-30.34,3.13l-.36.05h0l-1.12.18-1.25.2-.15,0-.46.08-1.37.25-.57-.11-.11,0-.55-.11-.85-.17-.7-.14-3.44-.66-1-.19-2.58-.46-1.11-.2-.2,0-1.36-.23c-11.11-1.87-27.06-3.89-41.12-2.88-7.25.52-14,1.84-19.31,4.4-8.29,4-13.12,11-11,22.65,2.45,13.65-12.38,21.79-12.5,29.47,0,2.61-.18,5.51-.46,8.6-4.41,4.45-9,8.73-13.51,13.06C64.63,157.79,56.23,146.61,51,134c-.19-.46-.38-.93-.56-1.4-9.73-24.92-7.7-65.28,17.12-80.92Q69.85,50.26,72.3,49a102.63,102.63,0,0,1,24.5-8.55c4-.91,8-1.67,12-2.34,4.45-.76,8.87-1.4,13.16-2,25.52-3.65,51.4-4.95,77.16-5h.38c2.7,0,5.38.07,8.07.12,8.79,9.67,21.27,17.84,37.25,23.08,8.43,2.76,16.22,6.2,24,9.62A236.23,236.23,0,0,0,294,73.72c20.36,6.3,41.08,9.22,62.27,10.57A63.53,63.53,0,0,1,357.48,102.83Z" class="canChange"></path><path fill="#6e3e23" stroke="#000" stroke-miterlimit="10" stroke-width="5" d="M296.29,117.19c5.1,1.35,10.23,2.71,15.62,3.64,14.27,2.47,28,1.88,41.51-.29a64,64,0,0,0,2.89-36.25C335.12,82.94,314.4,80,294,73.72c-17.45-5.39-32-13.85-49.23-19.49-16-5.24-28.46-13.41-37.25-23.08-2.69,0-5.37-.11-8.07-.12C158,31.18,118.73,36,88,41c-4.46,10.58-9,17.42,1.57,30.61,6.63,8.26,15.3,15.41,23.79,22.73,22.25-6.73,59.64,1.23,67.6,2.78C192.18,94.93,285.85,81.16,296.29,117.19Z" class="canChange"></path><path opacity="0.29" d="M343,138.83,327.73,171.4c-.85-.67-1.69-1.34-2.57-2-3.21-2.35-8.34-4.82-9.7-8.84a4.38,4.38,0,0,0-.23-.58,110,110,0,0,1-.78-11.56c-.12-7.68-18-9-17.23-22.7C299.78,79.1,193,94.77,181,97.12c-1.48-.29-4-.8-7.22-1.4l95.09-31.87A236.23,236.23,0,0,0,294,73.72c20.36,6.3,41.08,9.22,62.27,10.57C363.09,116.37,343,138.83,343,138.83Z"></path><path fill="#6e3e23" stroke="#000" stroke-miterlimit="10" stroke-width="5" d="M216.05,93.2c-12.8.73-23.93,2.14-30.35,3.12l-.36.05h0l-1.12.18-1.25.2-.15,0-.46.08-1.37.25-.57-.11-.11,0-.55-.11-.85-.17-.7-.14-3.44-.66-1-.19-2.58-.46-1.11-.2-.2,0-1.36-.23C157.42,93,141.55,91,127.53,92c-7.25.51-14,1.83-19.35,4.39l-.12,0C88.94,91.9,76.49,84.61,71.24,74.68A23.92,23.92,0,0,1,70,72v0a0,0,0,0,0,0,0c-.12-.3-.23-.61-.32-.92l-.14-.39a25.48,25.48,0,0,1-1.14-7A26.68,26.68,0,0,1,72.3,49,28.34,28.34,0,0,1,93,35.64q5.06-.63,10.45-1.15,5.82-.56,12-1c25.77-1.87,55.5-2.34,83.67-2.45.89,19.9,6.46,40,15.08,58.33.6,1.28,1.22,2.56,1.85,3.83Z" class="canChange"></path><path fill="#6e3e23" stroke="#000" stroke-miterlimit="10" stroke-width="5" d="M357.48,102.83c-9.92,2.71-24.08,3.22-42.53,0C274,95.75,264.2,79.93,214.19,89.36c-8.38,1.57-17.88,3.86-28.85,7h0c-2.67.77-5.42,1.59-8.27,2.46,0,0-25.74-.84-49.51-6.88l-.16,0c-11-2.8-21.53-6.7-28.92-12.15a31.48,31.48,0,0,1-8.79-9.48h0c-3.39-5.93-4-13.05.36-21a41.56,41.56,0,0,1,6.78-8.86,72.2,72.2,0,0,1,6.65-5.94q3.47-2.73,7.78-5.55c11.52-7.5,25.12-12.72,39.67-15.92,33.2-7.34,71.38-4.22,101.3,6,57.85,19.85,90.74,52.46,104.71,54.83,3.59,0-4.12-3.43-7-3.57,0,0,19.28-3.48,24.4,12C377.08,90.73,371.52,99,357.48,102.83Z" class="canChange"></path><path opacity="0.29" d="M182.64,41c32-3.35,62.72,14.33,92.52,31.46,24.44,14,47.15,26.35,69.32,26.85,24,.54,24-10.95,24-10.95-26.21,12.39-55.82-2-87.68-20.28C251,51,217.11,31.52,181.28,35.32,137.43,40,135.8,58,136.35,63.45c.84,8.4,7.64,16,15.17,22.06-10.47-3.48-21.93-8.66-28.45-16-8.23-9.24-8.85-24.08,16.42-35.43,63.32-28.45,122.84,6.45,151.45,23.21l3.29,1.93c21,12.22,44.86,26.08,60.57,28.06,4.59.58,9.57.12,12.22-2.94,4.39-5.07-4.35-10.31-4.35-10.31,2.17,3-.46,6.35-1,6.87s-3.13,1-5.22.69C343,79.89,318.13,65.42,300,54.85l-3.27-1.91c-27.89-16.34-93.18-54.61-162-23.67-28.35,12.73-30,30.87-19,43.18C128.43,86.91,165.69,96.56,177,98.84c0,0-9.94-19-8.85-28.85.45-4.09,3.06-7.47,7.35-9.52,5.42-2.57,13.33-3.06,22.86-1.4,21.47,3.74,41.49,14.08,60.86,24.08,24.92,12.88,45.5,23.59,75.31,25.33,15.47.9,19.9-6.22,19.9-6.22-33.3,5.59-60.77-8.63-89.89-23.68-20-10.36-40.79-21.07-64-25.11-15.29-2.67-24.81-.22-30.1,2.3-6.43,3.06-10.31,8-11,13.79-.6,5.44,1.55,11.32,4,16.13C155.09,80,145.9,71.86,145,63.07,143.88,51.72,157.6,43.69,182.64,41Z"></path><path fill="#fff" d="M150.9,13c-10.18,5.39-24.56,13.3-35.46,20.46-2.42,1.58-4.66,3.13-6.65,4.61a44,44,0,0,0-7.29,6.41A56.76,56.76,0,0,0,89.68,70.11c.14-1.61,1.14-13.45.34-20.82-.42-3.83-1.32-6.45-3.09-5.8-5.43,2-14.43,9-15.43,27-.09,1.68-.18,3.06-.26,4.18C70.43,85.3,70,72.54,70,72v0a0,0,0,0,0,0,0,9.64,9.64,0,0,0-.32-.92l-.14-.39c-1.12-2.86-4.11-9-8-5.1-5,5-12,26-11,61,.06,2.19,0,4.23-.08,6.13-9.73-24.92-7.7-65.28,17.12-80.92Q69.85,50.26,72.3,49A28.34,28.34,0,0,1,93,35.64q5.06-.63,10.45-1.15,3.47-2.73,7.78-5.55C122.75,21.44,136.35,16.22,150.9,13Z" class="cls-overlay"></path><path d="M193,150.23c-9.82-7.43-22.29-12.35-34.08-15.47-27-7.15-54.79-3.37-79.66,9-5.76,2.86-.7,11.49,5,8.64,32-15.87,74.26-15.72,103.65,6.52,5.13,3.88,10.12-4.8,5-8.64Z" class="canChange"></path><path d="M213,160.12c29.07-22.2,70.94-22.38,102.65-6.51,5.74,2.87,10.81-5.76,5.05-8.64-24.62-12.31-52.22-16.11-79-8.95-11.7,3.13-24.06,8-33.78,15.47-5,3.85-.07,12.54,5,8.63Z" class="canChange"></path><ellipse opacity="0.29" cx="277.91" cy="193.44" rx="42.09" ry="43.67"></ellipse><ellipse fill="#fff" cx="277.11" cy="191.24" rx="40.59" ry="42.17"></ellipse><path d="M277.11,150.57c21.55,0,39.09,18.25,39.09,40.67s-17.54,40.67-39.09,40.67S238,213.66,238,191.24s17.53-40.67,39.09-40.67m0-3c-23.25,0-42.09,19.55-42.09,43.67s18.84,43.67,42.09,43.67,42.09-19.55,42.09-43.67-18.85-43.67-42.09-43.67Z"></path><path opacity="0.29" d="M319.19,191.24c0,24.12-18.84,43.66-42.09,43.66A41.47,41.47,0,0,1,243.82,218a52.93,52.93,0,0,0,16.33,2.57c26.18,0,47.4-18.92,47.4-42.25a39,39,0,0,0-8.75-24.47A44,44,0,0,1,319.19,191.24Z"></path><ellipse cx="277.7" cy="195.1" rx="13.98" ry="13.42" transform="translate(-5.32 7.8) rotate(-1.59)" class="canChange"></ellipse><ellipse opacity="0.29" cx="122.09" cy="195.44" rx="42.09" ry="43.67"></ellipse><ellipse fill="#fff" cx="122.89" cy="193.24" rx="40.59" ry="42.17"></ellipse><path d="M122.89,152.57c21.56,0,39.09,18.25,39.09,40.67s-17.53,40.67-39.09,40.67S83.8,215.66,83.8,193.24s17.54-40.67,39.09-40.67m0-3c-23.24,0-42.09,19.55-42.09,43.67s18.85,43.67,42.09,43.67S165,217.36,165,193.24s-18.84-43.67-42.09-43.67Z"></path><path opacity="0.29" d="M80.81,193.24c0,24.12,18.84,43.66,42.09,43.66A41.47,41.47,0,0,0,156.18,220a52.93,52.93,0,0,1-16.33,2.57c-26.18,0-47.4-18.92-47.4-42.25a39,39,0,0,1,8.75-24.47A44,44,0,0,0,80.81,193.24Z"></path><ellipse cx="120.7" cy="193.1" rx="13.98" ry="13.42" transform="translate(-5.33 3.43) rotate(-1.59)" class="canChange"></ellipse><path d="M165.81,255c5.64,1.24,11.12,2.63,16.69,3.49a111.63,111.63,0,0,0,16.68,1.34,88.39,88.39,0,0,0,16.59-1.6c.69-.13,1.38-.24,2.06-.4s1.36-.34,2-.48c1.38-.28,2.73-.71,4.1-1,2.73-.76,5.45-1.64,8.21-2.47a62,62,0,0,1-7.52,4.31,58.05,58.05,0,0,1-8.15,3.12,59,59,0,0,1-17.33,2.57,67.39,67.39,0,0,1-17.34-2.3A69.9,69.9,0,0,1,165.81,255Z"></path><path fill="#c73a77" stroke="#000" stroke-miterlimit="10" stroke-width="5" d="M248.37,300.56h0c-1.08-.09-2.16-.14-3.26-.14h-6.7a21.59,21.59,0,0,1,4.36,12.76c0,.22,0,.44,0,.66-.52,15.62-19.24,28.17-42.28,28.17-23.35,0-42.28-12.91-42.28-28.83a21.59,21.59,0,0,1,4.36-12.76h-7.47c-1.1,0-2.18.05-3.26.14h0c-26.08,2-47.72,27.68-53.4,61.41h30.4l0,15.7v.73l.05,20.17H272V362h29.79C296.09,328.24,274.45,302.54,248.37,300.56Z" class="canChange"></path><polygon fill="#fff" points="134.09 349.65 134.09 399.43 128.19 398.65 128.38 349.65 134.09 349.65" class="cls-overlay"></polygon><line fill="none" stroke="#000" stroke-miterlimit="10" stroke-width="5" x1="271.84" y1="348.43" x2="271.75" y2="400"></line><path opacity="0.29" d="M260.53,302.78c-12.93,8.17-34.09,13.48-58,13.48-24.95,0-46.92-5.8-59.66-14.59a42.88,42.88,0,0,1,8.94-1.68h0c1.08-.09,2.16-.13,3.26-.13h90c1.1,0,2.18,0,3.26.13h0A42.67,42.67,0,0,1,260.53,302.78Z"></path><line fill="none" stroke="#000" stroke-miterlimit="10" stroke-width="5" x1="129.25" y1="349.01" x2="129.15" y2="400"></line><path opacity="0.29" d="M301.76,363.22H284.69c-3.38-46.05-31.07-49.55-41.94-49.11,0-.22,0-.45,0-.67a22.31,22.31,0,0,0-4.36-13h6.7c1.1,0,2.18.05,3.26.14h0C274.45,302.58,296.09,328.8,301.76,363.22Z"></path><path opacity="0.29" d="M99.88,362.09H117c3.38-46,31.08-49.55,42-49.11,0-.22,0-.45,0-.68a22.37,22.37,0,0,1,4.36-13h-6.69c-1.11,0-2.18,0-3.26.14h0C127.19,301.45,105.55,327.67,99.88,362.09Z"></path><path fill="#fff" d="M159.35,301v4.52s-23.63,0-36.67,18.11-17.93,39.6-17.93,39.6H98.24s8.14-36.21,20.37-46.39S152.83,297.59,159.35,301Z" class="cls-overlay"></path></svg>