<?xml version="1.0" standalone="no"?>
<!DOCTYPE svg PUBLIC "-//W3C//DTD SVG 20010904//EN"
 "http://www.w3.org/TR/2001/REC-SVG-20010904/DTD/svg10.dtd">
<svg version="1.0" xmlns="http://www.w3.org/2000/svg"
 width="320.000000pt" height="320.000000pt" viewBox="0 0 320.000000 320.000000"
 preserveAspectRatio="xMidYMid meet">

<g transform="translate(0.000000,320.000000) scale(0.100000,-0.100000)"
fill="#000000" stroke="none">
<path d="M1540 3030 l0 -30 -70 0 -70 0 0 -30 c0 -27 -3 -30 -30 -30 -28 0
-30 -2 -30 -40 l0 -40 -70 0 -70 0 0 40 c0 38 -2 40 -30 40 -28 0 -30 -2 -30
-40 l0 -40 -70 0 -70 0 0 -30 c0 -27 -3 -30 -30 -30 -27 0 -30 -3 -30 -29 0
-27 -3 -30 -37 -33 -36 -3 -38 -5 -41 -40 -3 -35 -6 -38 -33 -38 -29 0 -29 0
-29 -60 l0 -60 -30 0 -30 0 0 -70 0 -70 -40 0 -40 0 0 -230 0 -230 40 0 40 0
0 -140 0 -140 30 0 c27 0 30 -3 30 -30 l0 -30 -70 0 -70 0 0 -100 0 -100 40 0
40 0 0 -170 0 -170 30 0 c27 0 30 -3 30 -30 0 -27 3 -30 30 -30 27 0 30 3 30
30 0 28 2 30 40 30 l40 0 0 -130 0 -130 30 0 30 0 0 -70 0 -70 30 0 30 0 0
-60 0 -60 40 0 40 0 0 -99 0 -100 -37 -3 -38 -3 -3 -97 -3 -98 -29 0 c-28 0
-30 -2 -30 -40 0 -38 -2 -40 -30 -40 -27 0 -30 -3 -30 -30 l0 -30 160 0 160 0
0 30 0 30 -101 0 -100 0 3 38 c3 35 5 37 41 40 l37 3 0 94 0 94 33 3 c28 3 32
7 35 36 3 26 7 32 28 32 21 0 24 -5 24 -35 l0 -35 70 0 70 0 0 -35 c0 -32 2
-35 30 -35 l30 0 0 -100 0 -100 70 0 70 0 0 -30 0 -30 165 0 165 0 0 30 0 30
-165 0 -165 0 0 35 0 34 68 3 67 3 3 32 c3 29 7 33 33 33 25 0 29 4 29 30 0
29 0 29 68 32 l67 3 3 32 c3 26 8 32 30 35 21 2 28 9 32 33 4 24 11 31 35 35
24 4 31 11 33 33 3 26 5 27 68 27 l64 0 0 35 c0 32 2 35 30 35 28 0 30 -3 30
-35 0 -34 1 -35 40 -35 38 0 40 -2 40 -30 0 -28 -3 -30 -35 -30 l-35 0 0 -100
0 -100 165 0 165 0 0 -30 c0 -29 0 -29 68 -32 l67 -3 3 -37 c3 -35 6 -38 33
-38 26 0 29 -3 29 -30 l0 -30 70 0 70 0 0 30 0 30 -70 0 -70 0 0 40 c0 38 -2
40 -30 40 -27 0 -30 3 -30 30 l0 30 -70 0 -70 0 0 30 0 30 -70 0 -70 0 0 70 0
70 -30 0 c-27 0 -30 3 -30 30 0 27 -3 30 -29 30 -27 0 -30 3 -33 38 -3 35 -5
37 -40 40 -35 3 -38 6 -38 33 0 27 2 29 40 29 l40 0 0 130 0 130 30 0 30 0 0
100 0 99 68 3 67 3 3 38 c3 34 6 37 33 37 l29 0 0 260 0 260 -30 0 -30 0 0
100 0 100 30 0 30 0 0 300 0 300 -30 0 -30 0 0 70 0 70 -40 0 c-38 0 -40 2
-40 30 0 27 -3 30 -30 30 -28 0 -30 2 -30 40 0 38 -2 40 -30 40 -27 0 -30 3
-30 30 0 28 -2 30 -40 30 -38 0 -40 2 -40 30 0 30 0 30 -59 30 l-60 0 -3 38
-3 37 -67 3 c-68 3 -68 3 -68 32 l0 30 -100 0 -100 0 0 30 0 30 -130 0 -130 0
0 -30z m120 -135 l0 -35 70 0 70 0 0 35 0 35 95 0 95 0 0 -29 c0 -25 -4 -30
-27 -33 -23 -2 -29 -8 -31 -35 l-3 -33 -135 0 -134 0 0 -30 c0 -27 -3 -30 -30
-30 l-30 0 0 65 0 65 -95 0 -95 0 0 30 0 30 125 0 125 0 0 -35z m-262 -62 c-2
-22 -9 -29 -30 -31 -25 -3 -28 0 -28 27 0 28 3 31 31 31 27 0 30 -3 27 -27z
m-338 -103 l0 -60 -30 0 -30 0 0 -65 0 -65 -65 0 -65 0 0 60 0 60 35 0 c33 0
35 2 35 34 0 32 3 35 33 38 27 2 33 8 35 31 3 21 9 27 28 27 23 0 24 -3 24
-60z m270 35 c0 -21 -5 -25 -30 -25 -25 0 -30 4 -30 25 0 21 5 25 30 25 25 0
30 -4 30 -25z m600 -230 l0 -65 -30 0 -30 0 0 65 0 65 30 0 30 0 0 -65z
m-1070 -35 c0 -25 -4 -30 -25 -30 -21 0 -25 5 -25 30 0 25 4 30 25 30 21 0 25
-5 25 -30z m540 -65 c0 -24 -2 -25 -65 -25 -63 0 -65 1 -65 25 0 24 2 25 65
25 63 0 65 -1 65 -25z m600 -205 c0 -27 3 -30 30 -30 28 0 30 -3 30 -35 l0
-35 70 0 70 0 0 -65 0 -65 30 0 30 0 0 -100 0 -100 35 0 35 0 0 -230 0 -230
-35 0 -35 0 0 -70 0 -70 -30 0 -30 0 0 -100 0 -100 30 0 30 0 0 -165 0 -165
-29 0 c-26 0 -30 -4 -33 -33 l-3 -32 -97 -3 -98 -3 0 -29 c0 -28 -3 -30 -35
-30 -33 0 -35 -2 -35 -35 l0 -34 -62 -3 c-61 -3 -63 -4 -68 -33 l-5 -30 -195
0 -195 0 -3 27 c-3 25 -7 27 -67 33 -63 7 -64 8 -67 39 -3 27 -7 31 -35 34
-29 3 -33 7 -33 33 0 26 -3 29 -30 29 -28 0 -30 3 -30 35 0 33 -2 35 -35 35
l-34 0 -3 68 c-3 65 -4 67 -30 70 l-27 3 -3 127 -3 127 -32 3 -33 3 0 65 0 64
-65 0 -65 0 0 94 0 95 28 3 c22 2 28 8 30 36 3 29 6 32 38 32 l34 0 0 240 0
240 30 0 30 0 0 100 0 100 30 0 c27 0 30 3 30 30 0 28 2 30 40 30 38 0 40 2
40 30 l0 30 430 0 430 0 0 -30z m-1210 -795 c0 -20 -5 -25 -25 -25 -20 0 -25
5 -25 25 0 20 5 25 25 25 20 0 25 -5 25 -25z"/>
<path d="M1060 1830 c0 -27 -3 -30 -30 -30 l-30 0 0 -129 0 -129 63 -7 c34 -3
125 -5 202 -3 l140 3 3 26 c3 22 9 28 40 33 20 3 49 6 65 6 24 0 27 4 27 35 0
33 -2 35 -35 35 l-35 0 0 65 0 65 -100 0 -100 0 0 30 0 30 -105 0 -105 0 0
-30z m200 -130 l0 -30 -95 0 -95 0 0 30 0 30 95 0 95 0 0 -30z"/>
<path d="M1860 1830 c0 -29 -1 -29 -62 -32 -60 -3 -63 -4 -66 -30 -3 -25 -8
-28 -38 -28 l-35 0 3 -137 3 -138 38 -3 c36 -3 37 -3 37 32 l0 36 178 0 c97 0
201 3 230 6 l52 7 0 63 0 64 -130 0 -130 0 0 30 0 30 130 0 130 0 0 35 c0 32
-2 35 -30 35 -27 0 -30 3 -30 30 l0 30 -140 0 -140 0 0 -30z"/>
<path d="M1667 1333 c-4 -3 -7 -48 -7 -100 l0 -93 -130 0 -130 0 0 -40 0 -40
64 0 c63 0 65 -1 68 -27 l3 -28 133 -3 132 -3 0 71 0 70 30 0 c27 0 30 3 30
29 0 25 -4 30 -27 33 -23 2 -29 8 -31 36 -3 28 -7 32 -33 32 -27 0 -29 3 -29
35 0 33 -2 35 -33 35 -19 0 -37 -3 -40 -7z"/>
<path d="M1660 900 l0 -40 40 0 c38 0 40 -2 40 -29 0 -27 -3 -30 -37 -33 -35
-3 -38 -6 -41 -37 l-3 -34 -100 7 -99 7 0 -41 0 -40 170 0 170 0 0 70 0 70 65
0 65 0 0 30 c0 27 -3 30 -30 30 -28 0 -30 2 -30 40 l0 40 -105 0 -105 0 0 -40z"/>
<path d="M1260 835 l0 -35 100 0 100 0 0 29 c0 26 -3 29 -46 35 -26 3 -71 6
-100 6 l-54 0 0 -35z"/>
</g>
</svg>
